<svg width="18" height="18" viewBox="0 0 18 18" fill="none" xmlns="http://www.w3.org/2000/svg">
<path d="M9 0C13.9725 0 18 4.0275 18 9C18 13.9725 13.9725 18 9 18C4.0275 18 0 13.9725 0 9C0 4.0275 4.0275 0 9 0ZM10.2712 10.5525L10.665 3.285H7.335L7.72875 10.5525H10.2712ZM10.17 14.3325C10.44 14.0737 10.5863 13.7137 10.5863 13.2525C10.5863 12.78 10.4513 12.42 10.1813 12.1613C9.91125 11.9025 9.5175 11.7675 8.98875 11.7675C8.46 11.7675 8.06625 11.9025 7.785 12.1613C7.50375 12.42 7.36875 12.78 7.36875 13.2525C7.36875 13.7137 7.515 14.0737 7.79625 14.3325C8.08875 14.5912 8.4825 14.715 8.98875 14.715C9.495 14.715 9.88875 14.5912 10.17 14.3325Z" fill="#B73535"/>
</svg>
